<?xml version="1.0" encoding="iso-8859-1"?>
<!-- Generator: Adobe Illustrator 19.0.0, SVG Export Plug-In . SVG Version: 6.00 Build 0)  -->
<svg version="1.1" id="Capa_1" xmlns="http://www.w3.org/2000/svg" xmlns:xlink="http://www.w3.org/1999/xlink" x="0px" y="0px"
	 viewBox="0 0 211.627 211.627" style="enable-background:new 0 0 211.627 211.627;" xml:space="preserve">
<g>
	<g>
		<path d="M167.253,88.747c-0.172,0-0.345,0-0.519,0.003c0.345-2.304,0.519-4.589,0.519-6.83c0-26.349-21.437-47.787-47.787-47.787
			c-22.446,0-41.757,15.756-46.585,37.301c-5.881-2.103-12.01-3.168-18.268-3.168C24.499,68.267,0,92.766,0,122.88
			c0,28.268,21.823,51.932,49.884,54.351c0.405,0.169,0.85,0.263,1.316,0.263h116.053c24.467,0,44.373-19.907,44.373-44.373
			C211.627,108.653,191.72,88.747,167.253,88.747z M167.253,170.667H52.273c-0.27-0.089-0.553-0.145-0.848-0.166
			C26.418,168.847,6.827,147.93,6.827,122.88c0-26.349,21.437-47.787,47.787-47.787c6.733,0,13.293,1.41,19.5,4.19
			c0.985,0.44,2.121,0.393,3.063-0.137c0.94-0.527,1.577-1.469,1.717-2.539c2.635-20.323,20.079-35.647,40.573-35.647
			c22.584,0,40.96,18.376,40.96,40.96c0,3.154-0.408,6.426-1.212,9.725c-0.266,1.084,0.017,2.231,0.756,3.067
			c0.739,0.84,1.836,1.265,2.949,1.133c1.587-0.183,3.004-0.271,4.333-0.271c20.704,0,37.547,16.843,37.547,37.547
			C204.8,153.824,187.957,170.667,167.253,170.667z"/>
	</g>
</g>
<g>
	<g>
		<path d="M53.47,78.52c-24.242,0.614-43.23,20.099-43.23,44.36c0,1.884,1.529,3.413,3.413,3.413s3.413-1.529,3.413-3.413
			c0-20.528,16.067-37.014,36.576-37.535c1.884-0.048,3.374-1.615,3.326-3.499C56.921,79.962,55.373,78.473,53.47,78.52z"/>
	</g>
</g>
<g>
	<g>
		<path d="M130.331,115.005c-0.364-5.763-2.951-11.042-7.284-14.862c-8.134-7.168-49.693-6.586-57.941-6.4
			c-1.338,0.031-2.534,0.841-3.06,2.072c-0.526,1.23-0.283,2.656,0.62,3.644c0.983,1.077,24.19,26.438,31.787,33.133
			c3.983,3.511,9.004,5.402,14.268,5.402c0.462,0,0.927-0.014,1.393-0.044c5.763-0.364,11.042-2.951,14.862-7.284
			C128.794,126.333,130.695,120.771,130.331,115.005z M119.852,126.152c-2.613,2.966-6.224,4.736-10.17,4.985
			c-3.951,0.246-7.75-1.051-10.716-3.666c-5.195-4.577-18.63-18.941-26.086-26.998c20.796-0.051,42.004,1.577,45.655,4.792
			C124.655,110.66,125.247,120.03,119.852,126.152z"/>
	</g>
</g>
<g>
	<g>
		<path d="M147.425,155.353c-2.833-23.591-31.628-36.833-32.852-37.386c-1.72-0.773-3.739-0.009-4.516,1.708
			c-0.775,1.719-0.01,3.741,1.708,4.516c0.265,0.12,26.501,12.169,28.879,31.976c0.208,1.734,1.681,3.007,3.384,3.007
			c0.135,0,0.271-0.009,0.413-0.026C146.314,158.923,147.649,157.225,147.425,155.353z"/>
	</g>
</g>
<g>
</g>
<g>
</g>
<g>
</g>
<g>
</g>
<g>
</g>
<g>
</g>
<g>
</g>
<g>
</g>
<g>
</g>
<g>
</g>
<g>
</g>
<g>
</g>
<g>
</g>
<g>
</g>
<g>
</g>
</svg>
