<svg id="Layer_1" enable-background="new 0 0 68 68" height="512" viewBox="0 0 68 68" width="512" xmlns="http://www.w3.org/2000/svg"><g id="_x35_3"><path d="m3.4 64.2c-.6 0-1 .4-1 1s.4 1 1 1h61.1c.6 0 1-.4 1-1s-.4-1-1-1h-29.5v-4.3c8.7 1.7 17.4-3.5 19.8-12.3.1-.5-.2-1.1-.7-1.2-7.7-2.1-15.3 1.3-19.1 7.5v-6.5c3.4-3.6 5.4-8.3 5.4-13.3 0-5.1-2-10-5.6-13.6-.4-.4-1-.4-1.4 0-3.6 3.6-5.6 8.5-5.6 13.6 0 5 1.9 9.7 5.4 13.3v6.5c-3.8-6.2-11.5-9.6-19.1-7.5-.3.1-.5.2-.6.5-.1.2-.2.5-.1.8 2.4 8.7 11.1 14 19.8 12.3v4.3h-29.8zm49.2-16.1c-2.5 7.1-9.9 11.4-17.3 9.8 2.5-7.1 9.9-11.3 17.3-9.8zm-37.2 0c7.3-1.5 14.8 2.6 17.3 9.8-7.4 1.5-14.8-2.7-17.3-9.8zm14.2-14c0-4.3 1.5-8.3 4.4-11.5 2.8 3.2 4.4 7.2 4.4 11.5 0 3.7-1.2 7.3-3.4 10.2v-4.6c0-.6-.4-1-1-1s-1 .4-1 1v4.6c-2.2-2.9-3.4-6.5-3.4-10.2z"/><path d="m57 18.2c.8-8.7-6.1-16.4-15-16.4-5.4 0-10.5 3-13.1 7.7-6.4-2.6-13.4 1.9-13.8 8.7-7-1.3-13.3 4.1-13.3 11.1 0 6.2 5.1 11.3 11.3 11.3h10.7c.6 0 1-.4 1-1s-.4-1-1-1h-10.7c-5.1 0-9.3-4.2-9.3-9.3 0-6.3 6.2-10.7 12.1-8.9.3.1.7 0 1-.2s.4-.6.3-.9c0-.1 0-.3 0-.5 0-6 6.4-9.9 11.8-7 .2.1.5.1.8.1.3-.1.5-.3.6-.5 2-4.7 6.6-7.6 11.6-7.6 7.2 0 13.1 5.8 13.1 13 0 .8-.1 1.4-.2 2-.1.3 0 .6.2.8s.4.4.7.4c4.8.4 8.5 4.4 8.5 9.3 0 5.1-4.2 9.3-9.3 9.3h-9c-.6 0-1 .4-1 1s.4 1 1 1h8.9c6.2 0 11.3-5.1 11.3-11.3 0-5.6-3.9-10.2-9.2-11.1z"/><path d="m42.9 7.1c-.6 0-1 .4-1 1s.4 1 1 1c3.8 0 6.8 3.1 6.8 6.8 0 .6.4 1 1 1s1-.4 1-1c0-4.9-3.9-8.8-8.8-8.8z"/><path d="m51 33.9c0 .6.4 1 1 1h5.9c.6 0 1-.4 1-1s-.4-1-1-1h-5.9c-.6 0-1 .5-1 1z"/><path d="m48.9 32.9h-2.4c-.6 0-1 .4-1 1s.4 1 1 1h2.4c.6 0 1-.4 1-1s-.5-1-1-1z"/><path d="m6.5 31c0 .6.4 1 1 1s1-.4 1-1c0-3.4 2.8-6.2 6.2-6.2.6 0 1-.4 1-1s-.4-1-1-1c-4.5-.1-8.2 3.6-8.2 8.2z"/></g></svg>