<svg xmlns="http://www.w3.org/2000/svg" id="Layer_1" data-name="Layer 1" viewBox="0 0 523.85 103.73"><defs><style>      .cls-1 {        fill: #1cb1bf;      }      .cls-1, .cls-2 {        stroke-width: 0px;      }      .cls-2 {        fill: #0c646e;      }    </style></defs><g><path id="Word_Mark" data-name="Word Mark" class="cls-2" d="M99.93,27.36c-12.18,0-24.5,3.15-32.86,8.89l7.93,14.91c5.52-4.25,13.88-6.84,21.95-6.84,11.9,0,17.56,5.33,17.56,14.5h-17.56c-23.22,0-32.71,9.03-32.71,22.03s10.63,22.31,28.47,22.31c11.19,0,19.12-3.21,23.23-9.91v9.91h20.68v-43.1c0-22.31-13.45-32.7-36.68-32.71h0ZM114.06,79.62c-2.5,6.8-8.75,10.13-15.96,10.13-7.64,0-12.21-3.61-12.21-9.02,0-4.99,3.19-8.74,13.32-8.74h14.85v7.64h0ZM274.14,83.74l5.19,15.83c-4,2.79-10.47,4.16-16.53,4.16-.97,0-1.93-.02-2.86-.07-16.87-.91-28.79-10.02-28.79-27.1v-28.13h-10.41v-17.18h10.41V11.97h23.93v19.28h19.07v17.18h-19.07v27c0,7.47,3.63,10.99,9.8,10.99,3.31,0,6.93-.98,9.28-2.67h0ZM53.4,83.74l5.19,15.83c-4,2.79-10.47,4.16-16.53,4.16-.97,0-1.93-.02-2.86-.07-16.87-.91-28.79-10.02-28.79-27.1v-28.13H0v-17.18h10.41V11.97h23.93v19.28h19.07v17.18h-19.07v27c0,7.47,3.63,10.99,9.8,10.99,3.31,0,6.93-.98,9.28-2.67h0ZM328.15,0c6.04,0,12.49,1.36,16.48,4.15l-5.17,15.78c-2.34-1.69-5.95-2.67-9.25-2.67-6.33,0-9.77,3.51-9.77,10.96v3.03h19.02v17.18h-19.02v55.3h-23.92v-55.3h-10.32v-17.18h13.31v-3.17C299.52,11.1,309.7,0,328.15,0h0ZM405.24,27.36h23.94v76.37h-22.07v-10.48c-5.73,6.73-14.1,10.32-23.31,10.32-1.16,0-2.57-.04-3.69-.12-17.01-1.27-28.68-12.23-28.68-34.56V27.36h23.92l-.03,37.95c0,12.81,4.63,18.5,14.25,18.5s15.66-6.55,15.66-20.64V27.36ZM465.09,0v103.73h-23.94V0h23.94ZM163.42,65.83c0,10.39,8.46,18.85,18.85,18.85,6.91,0,12.97-3.74,16.24-9.29l14.72,12.33c-6.88,9.69-18.18,16.01-30.96,16.01-20.93,0-37.91-16.96-37.91-37.9s16.97-37.91,37.91-37.91c12.18,0,24.03,6.25,30.96,15.18l-14.71,13.18c-3.27-5.57-9.33-9.3-16.24-9.3-10.4,0-18.85,8.46-18.85,18.85h0Z"></path><circle class="cls-1" cx="485.29" cy="91.63" r="12"></circle></g><path class="cls-2" d="M500.11,1.58V0h9.13v1.58h-9.13ZM503.8,12.11V.87h1.76v11.24h-1.76ZM511.56,12.11V0h1.76v12.11h-1.76ZM517.14,12.11l-5.27-12.11h1.84l3.98,9.49,4-9.49h1.82l-5.26,12.11h-1.12ZM522.09,12.11V0h1.76v12.11h-1.76Z"></path></svg>